<svg width="289" height="71" viewBox="0 0 289 71" fill="none" xmlns="http://www.w3.org/2000/svg">
<path d="M63.006 15.598C65.526 15.598 66.618 14.296 66.618 12.532V11.608C66.618 9.84399 65.526 8.54199 63.006 8.54199C60.486 8.54199 59.394 9.84399 59.394 11.608V12.532C59.394 14.296 60.486 15.598 63.006 15.598ZM59.898 40H66.114V17.95H59.898V40Z" fill="#0A5892"/>
<path d="M78.1316 40V25.72C78.1316 23.536 79.9796 22.486 81.7856 22.486C83.8016 22.486 84.8096 23.83 84.8096 26.686V40H91.0256V25.72C91.0256 23.536 92.8316 22.486 94.6796 22.486C96.7376 22.486 97.7036 23.83 97.7036 26.686V40H103.92V26.182C103.92 20.638 101.568 17.446 97.3256 17.446C93.9656 17.446 91.4036 19.42 90.6056 21.898H90.4796C89.5136 19 87.3296 17.446 84.3056 17.446C81.0296 17.446 79.1816 19.336 78.3836 21.688H78.1316V17.95H71.9156V40H78.1316Z" fill="#0A5892"/>
<path d="M109.445 48.4H115.661V36.304H115.871C116.501 38.698 118.937 40.504 121.793 40.504C127.379 40.504 130.277 36.43 130.277 28.954C130.277 21.478 127.379 17.446 121.793 17.446C118.937 17.446 116.501 19.21 115.871 21.646H115.661V17.95H109.445V48.4ZM119.735 35.464C117.383 35.464 115.661 34.246 115.661 32.23V25.72C115.661 23.704 117.383 22.486 119.735 22.486C122.087 22.486 123.809 24.292 123.809 27.064V30.886C123.809 33.658 122.087 35.464 119.735 35.464Z" fill="#0A5892"/>
<path d="M135.844 40H142.06V22.78H146.47V17.95H142.06V13.75H146.47V8.91999H142.438C138.154 8.91999 135.844 11.104 135.844 15.346V17.95H132.736V22.78H135.844V40Z" fill="#0A5892"/>
<path d="M161.351 40V35.17H157.319V22.78H161.687V17.95H157.319V11.986H151.733V15.598C151.733 17.11 151.229 17.95 149.549 17.95H147.995V22.78H151.103V33.574C151.103 37.774 153.371 40 157.655 40H161.351Z" fill="#0A5892"/>
<path d="M175.039 40.504C179.071 40.504 182.305 39.118 184.279 36.85L181.171 32.986C179.785 34.414 178.357 35.632 175.753 35.632C172.435 35.632 170.881 33.784 170.881 30.886V30.55H185.035V28.702C185.035 22.738 182.095 17.446 174.787 17.446C168.151 17.446 164.455 21.982 164.455 28.954C164.455 36.01 168.277 40.504 175.039 40.504ZM174.913 22.024C177.391 22.024 178.609 23.83 178.609 26.518V26.896H170.881V26.56C170.881 23.83 172.435 22.024 174.913 22.024Z" fill="#0A5892"/>
<path d="M195.641 40V27.106C195.641 24.544 197.405 23.746 201.017 23.746H202.571V17.95H201.479C198.035 17.95 196.355 20.302 195.851 22.738H195.641V17.95H189.425V40H195.641Z" fill="#0A5892"/>
<path d="M212.622 40V25.72C212.622 23.536 214.47 22.486 216.276 22.486C218.292 22.486 219.3 23.83 219.3 26.686V40H225.516V25.72C225.516 23.536 227.322 22.486 229.17 22.486C231.228 22.486 232.194 23.83 232.194 26.686V40H238.41V26.182C238.41 20.638 236.058 17.446 231.816 17.446C228.456 17.446 225.894 19.42 225.096 21.898H224.97C224.004 19 221.82 17.446 218.796 17.446C215.52 17.446 213.672 19.336 212.874 21.688H212.622V17.95H206.406V40H212.622Z" fill="#0A5892"/>
<path d="M247.547 40.462C250.067 40.462 251.243 39.034 251.243 37.102V36.262C251.243 34.33 250.067 32.902 247.547 32.902C245.027 32.902 243.851 34.33 243.851 36.262V37.102C243.851 39.034 245.027 40.462 247.547 40.462Z" fill="#0A5892"/>
<path d="M260.045 15.598C262.565 15.598 263.657 14.296 263.657 12.532V11.608C263.657 9.84399 262.565 8.54199 260.045 8.54199C257.525 8.54199 256.433 9.84399 256.433 11.608V12.532C256.433 14.296 257.525 15.598 260.045 15.598ZM256.937 40H263.153V17.95H256.937V40Z" fill="#0A5892"/>
<path d="M275.171 40V25.72C275.171 23.536 277.145 22.486 279.161 22.486C281.429 22.486 282.227 23.872 282.227 26.686V40H288.443V26.182C288.443 20.638 286.049 17.446 281.555 17.446C278.069 17.446 276.221 19.378 275.423 21.688H275.171V17.95H268.955V40H275.171Z" fill="#0A5892"/>
<path fill-rule="evenodd" clip-rule="evenodd" d="M17.35 0C18.7307 0 19.85 1.11929 19.85 2.5V3.5H26V2.5C26 1.11929 27.1193 0 28.5 0C29.8807 0 31 1.11929 31 2.5V3.5H39.7C42.1853 3.5 44.2 5.51471 44.2 8V40C44.2 42.4853 42.1853 44.5 39.7 44.5H5C2.51473 44.5 0.5 42.4853 0.5 40V8C0.5 5.51472 2.51472 3.5 5 3.5H14.85V2.5C14.85 1.11929 15.9693 0 17.35 0ZM14.85 8.5H5.5V39.5H39.2V8.5H31V10C31 11.3807 29.8807 12.5 28.5 12.5C27.1193 12.5 26 11.3807 26 10V8.5H19.85V10C19.85 11.3807 18.7307 12.5 17.35 12.5C15.9693 12.5 14.85 11.3807 14.85 10V8.5ZM31.2178 17.7678C32.1941 18.7441 32.1941 20.327 31.2178 21.3033L22.1533 30.3678C21.5495 30.9716 20.7137 31.2019 19.9329 31.0589C19.3498 31.0201 18.7779 30.7779 18.3322 30.3322L14.6678 26.6678C13.6915 25.6915 13.6915 24.1085 14.6678 23.1322C15.6441 22.1559 17.227 22.1559 18.2033 23.1322L20.2605 25.1895L27.6822 17.7678C28.6586 16.7915 30.2415 16.7915 31.2178 17.7678Z" fill="#0A5892"/>
<rect x="153" y="47" width="136" height="24" rx="5" fill="#FF0000"/>
<path d="M162.664 65H167.398C170.728 65 172.924 62.894 172.924 58.718C172.924 54.542 170.728 52.436 167.398 52.436H162.664V65ZM165.4 62.57V54.866H167.398C169.018 54.866 170.026 55.748 170.026 57.746V59.69C170.026 61.688 169.018 62.57 167.398 62.57H165.4Z" fill="white"/>
<path d="M179.013 65.216C180.741 65.216 182.127 64.622 182.973 63.65L181.641 61.994C181.047 62.606 180.435 63.128 179.319 63.128C177.897 63.128 177.231 62.336 177.231 61.094V60.95H183.297V60.158C183.297 57.602 182.037 55.334 178.905 55.334C176.061 55.334 174.477 57.278 174.477 60.266C174.477 63.29 176.115 65.216 179.013 65.216ZM178.959 57.296C180.021 57.296 180.543 58.07 180.543 59.222V59.384H177.231V59.24C177.231 58.07 177.897 57.296 178.959 57.296Z" fill="white"/>
<path d="M187.843 65V58.88C187.843 57.944 188.635 57.494 189.409 57.494C190.273 57.494 190.705 58.07 190.705 59.294V65H193.369V58.88C193.369 57.944 194.143 57.494 194.935 57.494C195.817 57.494 196.231 58.07 196.231 59.294V65H198.895V59.078C198.895 56.702 197.887 55.334 196.069 55.334C194.629 55.334 193.531 56.18 193.189 57.242H193.135C192.721 56 191.785 55.334 190.489 55.334C189.085 55.334 188.293 56.144 187.951 57.152H187.843V55.55H185.179V65H187.843Z" fill="white"/>
<path d="M205.096 65.216C207.868 65.216 209.524 63.308 209.524 60.266C209.524 57.224 207.868 55.334 205.096 55.334C202.324 55.334 200.668 57.224 200.668 60.266C200.668 63.308 202.324 65.216 205.096 65.216ZM205.096 63.11C204.052 63.11 203.44 62.426 203.44 61.238V59.312C203.44 58.124 204.052 57.44 205.096 57.44C206.14 57.44 206.752 58.124 206.752 59.312V61.238C206.752 62.426 206.14 63.11 205.096 63.11Z" fill="white"/>
<path d="M216.656 60.806V58.214H211.31V60.806H216.656Z" fill="white"/>
<path d="M224.521 65L228.607 52.436H225.925L224.053 58.466L223.099 62.408H223.045L222.055 58.466L220.183 52.436H217.411L221.461 65H224.521Z" fill="white"/>
<path d="M233.417 65.216C235.145 65.216 236.531 64.622 237.377 63.65L236.045 61.994C235.451 62.606 234.839 63.128 233.723 63.128C232.301 63.128 231.635 62.336 231.635 61.094V60.95H237.701V60.158C237.701 57.602 236.441 55.334 233.309 55.334C230.465 55.334 228.881 57.278 228.881 60.266C228.881 63.29 230.519 65.216 233.417 65.216ZM233.363 57.296C234.425 57.296 234.947 58.07 234.947 59.222V59.384H231.635V59.24C231.635 58.07 232.301 57.296 233.363 57.296Z" fill="white"/>
<path d="M242.247 65V59.474C242.247 58.376 243.003 58.034 244.551 58.034H245.217V55.55H244.749C243.273 55.55 242.553 56.558 242.337 57.602H242.247V55.55H239.583V65H242.247Z" fill="white"/>
<path d="M250.064 65.216C252.494 65.216 254.114 63.884 254.114 62.066C254.114 60.428 253.052 59.492 251 59.222L249.938 59.078C249.164 58.97 248.948 58.7 248.948 58.196C248.948 57.728 249.308 57.404 250.208 57.404C251 57.404 251.792 57.782 252.386 58.376L253.916 56.81C252.962 55.874 252.044 55.334 250.064 55.334C247.814 55.334 246.392 56.594 246.392 58.412C246.392 60.122 247.436 61.058 249.578 61.328L250.604 61.454C251.27 61.544 251.558 61.778 251.558 62.246C251.558 62.804 251.198 63.146 250.154 63.146C249.128 63.146 248.318 62.678 247.652 61.94L246.086 63.524C247.058 64.604 248.246 65.216 250.064 65.216Z" fill="white"/>
<path d="M257.262 54.542C258.342 54.542 258.81 53.984 258.81 53.228V52.832C258.81 52.076 258.342 51.518 257.262 51.518C256.182 51.518 255.714 52.076 255.714 52.832V53.228C255.714 53.984 256.182 54.542 257.262 54.542ZM255.93 65H258.594V55.55H255.93V65Z" fill="white"/>
<path d="M264.915 65.216C267.687 65.216 269.343 63.308 269.343 60.266C269.343 57.224 267.687 55.334 264.915 55.334C262.143 55.334 260.487 57.224 260.487 60.266C260.487 63.308 262.143 65.216 264.915 65.216ZM264.915 63.11C263.871 63.11 263.259 62.426 263.259 61.238V59.312C263.259 58.124 263.871 57.44 264.915 57.44C265.959 57.44 266.571 58.124 266.571 59.312V61.238C266.571 62.426 265.959 63.11 264.915 63.11Z" fill="white"/>
<path d="M273.905 65V58.88C273.905 57.944 274.751 57.494 275.615 57.494C276.587 57.494 276.929 58.088 276.929 59.294V65H279.593V59.078C279.593 56.702 278.567 55.334 276.641 55.334C275.147 55.334 274.355 56.162 274.013 57.152H273.905V55.55H271.241V65H273.905Z" fill="white"/>
</svg>
