<svg clip-rule="evenodd" fill-rule="evenodd" stroke-miterlimit="2" viewBox="0 0 2155 296" width="300" height="41" xmlns="http://www.w3.org/2000/svg"><path d="M99.313 121.838c-8.159-14.73-24.475-24.021-41.696-24.021-25.604 0-43.734 17.9-43.734 43.279 0 13.6 6.346 23.567 17.675 30.592l30.817 16.316c14.73 7.25 34.446 15.409 34.446 34.671 0 22.659-19.717 40.334-42.15 40.334-20.621 0-33.988-12.688-41.242-30.817l-9.516 4.304c7.933 21.98 26.512 36.708 50.308 36.708 27.642 0 53.475-21.3 53.475-49.625 0-15.408-6.57-25.833-19.488-33.987L55.58 172.596c-13.825-6.57-30.82-14.05-30.82-31.95 0-17.904 13.824-32.633 32.179-32.633 16.087 0 26.966 7.933 34.67 20.166zM144.83 163.9h29.437v-6.792h-66.125v6.792h29.441v107.042h7.246z" fill="#231f20" fill-rule="nonzero"/><path d="m229.696 233.5 15.246 37.442h7.4l-47.559-117.609-47.704 117.609h7.396l15.25-37.442zm-2.717-6.796h-44.537l22.341-54.954zM258.534 270.942h20.533c16.908 0 30.346-3.021 42.875-15.1 11.475-11.021 17.512-25.967 17.512-41.667 0-16.304-6.191-31.554-18.116-42.725-12.53-11.625-25.667-14.342-42.271-14.342h-20.533zm7.245-6.796V163.9h13.138c14.192 0 25.967 2.567 36.833 12.38 10.721 9.816 16.459 23.403 16.459 37.895 0 13.588-5.438 26.571-15.1 36.234-10.867 10.716-23.246 13.737-38.192 13.737z" fill="#231f20"/><path d="M375.55 163.9h29.438v-6.792h-66.125v6.792h29.441v107.042h7.246zM807.121 110.28v-10.197h-68.887v170.859h10.88v-88.375h56.42v-10.2h-56.42v-62.088z" fill="#231f20" fill-rule="nonzero"/><path d="M841.484 217.042c18.87.304 32.613-9.963 32.613-29.742 0-9.662-3.325-18.717-11.475-24.454-7.7-5.588-16.759-5.738-25.967-5.738h-14.192v113.834h7.246v-53.9h3.625l37.138 53.9h8.304zm-11.775-6.792V163.9h4.68c6.64 0 14.34-.3 20.383 2.567 8.15 3.625 12.075 12.079 12.075 20.533 0 6.792-2.567 13.588-8 17.967-5.738 4.979-12.834 5.283-19.93 5.283zM951.484 233.5l14.488 37.442H973l-45.18-117.609-45.32 117.609h7.025l14.487-37.442zm-2.58-6.796h-42.307l21.225-54.954z" fill="#231f20"/><path d="M1077.776 157.108h-6.667v99.338l-87.917-100.85v115.346h6.667v-97.83l87.917 101.6zM1110.318 210.25v-53.142h-7.105v113.834h7.105v-51.333l2.958-3.017 53.558 54.35h9.321l-57.996-59.033 54.592-54.8h-9.467zM1226.888 163.9v-6.792h-45.895v113.834h7.245v-58.88h37.596v-6.795h-37.596V163.9zM1310.222 225.95c0 10.267 0 21.138-5.888 28.684-5.583 7.25-16.758 11.02-25.512 11.02-8.758 0-19.93-3.77-25.517-11.02-5.887-7.546-5.887-18.417-5.887-28.684v-68.842h-7.246v70.955c0 11.625 0 21.591 7.7 31.1 7.7 8.758 19.475 13.287 30.95 13.287 11.47 0 23.25-4.529 30.95-13.287 7.696-9.509 7.696-19.475 7.696-31.1v-70.955h-7.246z" fill="#231f20" fill-rule="nonzero"/><path d="M1353.134 217.042c18.871.304 32.613-9.963 32.613-29.742 0-9.662-3.32-18.717-11.475-24.454-7.7-5.588-16.758-5.738-25.967-5.738h-14.191v113.834h7.245v-53.9h3.625l37.138 53.9h8.304zm-11.775-6.792V163.9h4.68c6.645 0 14.345-.3 20.383 2.567 8.15 3.625 12.075 12.079 12.075 20.533 0 6.792-2.567 13.588-8 17.967-5.738 4.979-12.833 5.283-19.93 5.283z" fill="#231f20"/><path d="M1423.33 163.9h29.438v-6.792h-66.125v6.792h29.441v107.042h7.246z" fill="#231f20" fill-rule="nonzero"/><path d="m1540.997 233.5 13.72 37.442h6.66l-42.8-117.609-42.938 117.609h6.658l13.725-37.442zm-2.446-6.796h-40.083l20.108-54.954z" fill="#231f20"/><path d="M1686.06 270.942h6.596l-23.234-117.609-39.87 103.567-39.73-103.567-23.233 117.609h6.596l18.5-94.209h.287l37.58 97.98 37.716-97.98h.288zM1906.202 270.942h9.904L1881.23 94.417l-59.846 155.45-59.63-155.45-34.87 176.525h9.9l27.77-141.4h.43l56.4 147.062 56.617-147.062h.433z" fill="#231f20" fill-rule="nonzero"/><path d="m1996.852 233.5 14.029 37.442h6.804l-43.75-117.609-43.892 117.609h6.809l14.025-37.442zm-2.5-6.796h-40.975l20.558-54.954z" fill="#231f20"/><path d="M2033.714 157.108h7.246v113.834h-7.246zM2153.406 157.108h-6.742v99.338l-88.875-100.85v115.346h6.742v-97.83l88.875 101.6z" fill="#231f20" fill-rule="nonzero"/><g fill="none" stroke="#ed1c24" stroke-width=".56"><path d="m696.576 158.717.05 3.537c0 72.425-58.709 131.134-131.13 131.134-67.116 0-130.083-54.425-130.083-129.955l-.1-159.083H696.58z" stroke-width="2.3333352"/><path d="M560.921 60.425s-.262 2.88-1.57 4.713-2.876 4.187-4.709 5.233-2.092.787-4.187 2.88c-2.092 2.09-4.188 4.45-5.234 5.232s-4.97 3.405-4.97 3.405-.526 1.308-.263 3.4c.262 2.095-.788 4.45-1.046 5.495-.262 1.046-1.57 4.188-1.57 4.188s-1.31.783-2.88.783-3.925-1.566-5.758-2.091c-1.83-.525-7.325-1.571-8.375-2.617-1.046-1.046-4.446-3.663-4.446-3.663l-2.358-2.62s-.784-1.83-.784-3.4-1.046-4.971-1.57-6.021c-.521-1.046-3.663-5.496-3.663-5.496s-1.046-4.446-1.046-6.804c0-2.354 0-5.496.783-7.063.788-1.57 1.571-5.233 2.88-6.02 1.308-.784 3.4-3.926 3.4-3.926s2.095 1.046 3.141 1.046 6.542-1.991 6.021-5.916c-.525-3.925-4.187-8.896-6.283-9.421-2.092-.525-27.896-5.759-32.871-6.542-4.971-.783-14.913-3.142-17.008-3.142-2.092 0-9.946-1.829-12.821-3.662-2.88-1.833-9.421-5.233-9.421-5.233s-1.05 13.345 3.4 17.008c4.45 3.667 9.42 6.804 19.629 8.112 10.204 1.309 30.25 5.134 30.25 5.134l-2.775 2.879s-42.392.262-44.487-.263c-2.092-.525-6.28-1.308-6.28-1.308s-1.833 8.896 3.142 12.3c4.97 3.4 11.513 4.188 14.654 4.188h26.43l-.784 4.187s-10.208 1.308-13.087 2.092c-2.88.787-16.746 4.187-19.625 4.45s-11.775.783-11.775.783-.788 11.517 8.112 12.563c8.896 1.045 15.963-1.046 19.625-1.571 3.663-.521 17.533-2.617 17.533-2.617l.525 3.404-22.508 12.821s-12.037 7.592-14.392 8.113c-2.354.525-9.158 2.616-9.158 2.616s.783 10.73 12.3 9.421c11.513-1.308 27.475-12.037 27.475-12.037l12.563-6.017.262 2.617s-29.57 28.683-33.758 31.562-19.367 15.18-19.367 15.18-.258 7.324 11.775 7.85c12.038.524 29.833-22.247 29.833-22.247l20.571-20.833 1.571 2.096s-26.85 42.03-36.27 53.808c-9.422 11.775-23.292 25.28-23.292 25.28s8.637 6.545 13.87 4.712 17.375-11.15 31.142-32.613a6458.594 6458.594 0 0 1 28.158-43.441l3.142 1.308s-17.796 39.78-20.937 47.63c-3.138 7.853-6.438 9.424-6.438 9.424s12.98 2.354 18.475-4.45 24.075-47.629 24.075-47.629l4.713-.787.525 10.991-23.817 38.734 7.85-.263-23.813 34.18-19.787.524s-4.183-3.662-8.896-3.404c-4.708.263-12.3 6.546-12.3 6.546l7.067-.525s1.308 4.713 4.97 4.713c3.667 0 21.984-1.571 21.984-1.571s-10.204 6.804-13.346 7.85-8.33 1.625-9.683 3.4c-4.188 5.496-2.88 13.087-2.88 13.087l.526-3.666 4.187-2.092s4.446 2.354 6.542.525c2.091-1.833 3.662-5.496 3.662-5.496s4.188-3.142 6.804-3.925c2.617-.787 6.7-2.62 6.7-2.62l-.52 7.853s-3.563 6.542-3.3 9.159.683 5.758 1.991 7.85c1.309 2.096 3.4 2.879 3.4 2.879l.788-6.542s2.616-1.308 3.662-3.404c1.046-2.092-1.046-6.28-1.046-6.28v-7.066s3.663-4.187 4.709-5.758c1.046-1.567 2.616-4.971 2.616-4.971l8.113-.262s2.354 2.616 5.758 3.404c3.4.783 7.325 0 7.325 0l2.88 1.829s0-2.617-.263-4.971c-.258-2.354-2.617-7.067-6.542-7.067s-7.85 1.309-9.941 1.046c-2.096-.258-4.713-1.308-4.713-1.308s7.067-8.896 9.683-12.038c2.617-3.137 14.917-16.12 14.917-16.12l3.142 5.495 13.346-30.62s-1.05 13.345-2.355 21.983c-1.312 8.637-5.237 17.691-5.237 17.691l4.45-.258s-3.4 12.3-4.45 14.654c-1.046 2.355-4.446 8.896-4.446 8.896l4.188-.258s-8.9 16.746-12.825 24.075-15.438 21.983-15.438 21.983 6.542 2.092 12.558-.787c6.021-2.88 12.563-13.609 12.563-13.609s-4.45 16.125.783 16.909c5.234.787 9.421-3.3 9.421-3.3s2.208 17.408 10.992 16.908c13.766-.783 12.983-18.217 12.983-18.217s3.925 7.384 9.421 5.396c5.496-1.991 2.617-13.246 2.617-13.246s5.495 9.684 12.558 9.684c7.067 0 9.683-1.046 9.683-1.046s-10.729-10.471-13.866-17.275c-3.142-6.804-12.3-27.738-12.3-27.738l3.137-.262s-3.662-8.9-5.233-12.563-3.4-10.991-3.4-10.991h4.187s-4.975-9.842-6.02-18.217-1.309-21.196-1.309-21.196l13.608 34.542 3.142-8.371s11.25 11.15 14.654 14.812c3.4 3.663 10.73 14.134 10.73 14.134s-4.713 1.308-6.805 1.046c-2.096-.263-10.208-3.142-12.825-.525s-5.754 11.254-5.754 11.254l2.092-2.617s6.02 1.571 9.42.525c3.405-1.05 7.067-3.666 7.067-3.666l6.804.262s1.309 2.096 2.88 3.925c1.566 1.833 4.97 4.188 4.97 4.188l.263 7.591s-2.354 6.28-1.308 8.113c1.046 1.829 5.233 3.925 5.233 3.925l.263 6.279s2.875-1.833 3.4-3.142 1.045-4.446 1.045-4.446 1.834-4.45.525-6.545c-1.308-2.092-3.404-5.496-3.404-5.496l-.783-9.421 10.729 5.758 6.7 7.067 4.188 2.617 2.879 3.925s3.404-9.159 1.57-11.775-9.683-5.234-9.683-5.234l-12.458-7.329 9.946-.262s6.437 2.095 8.533 1.05c2.092-1.05 6.28-4.45 6.28-4.45l5.233 1.308-3.663-3.925s-4.97-3.404-8.637-3.142c-3.663.263-7.746 3.142-9.317 3.4-1.571.263-12.563.525-12.563.525l-2.879-.783-23.029-35.75 7.067 1.046-26.692-38.471-.783-12.038 6.016 1.046 20.938 39.517s4.187 8.375 8.633 10.466c4.45 2.096 16.488 2.88 16.488 2.88s-7.067-10.73-8.896-14.392c-1.833-3.663-20.413-42.658-20.413-42.658l3.663-1.571 43.075 61.762s5.046 8.2 13.087 10.104c9.942 2.355 17.009-3.562 17.009-3.562s-10.209-7.325-13.871-10.992c-3.663-3.662-45.954-66.366-45.954-66.366l2.354-2.355 37.583 38.105s5.496 5.758 12.3 4.97c6.8-.783 11.775-6.279 11.775-6.279s-11.516-8.375-15.962-12.825c-4.45-4.45-36.013-36.796-36.013-36.796l1.309-3.662 26.591 17.008s8.367 3.909 12.821 2.88c6.804-1.571 11.775-9.421 11.775-9.421s-8.112-2.096-13.867-4.975c-5.758-2.875-32.87-18.58-32.87-18.58l.262-2.879s23.708 6.804 28.683 6.546c4.971-.262 9.421-3.404 11.513-6.283 2.096-2.88 4.45-7.588 4.45-7.588s-5.496 0-15.704-1.308c-10.204-1.308-29.204-6.542-29.204-6.542l-.525-3.141s32.375.995 37.841-2.88c6.284-4.45 8.375-15.179 8.375-15.179s-12.82 2.88-21.72 2.88h-30.25l-2.359-3.563s16.383-3.138 24.758-3.663 24.6-6.804 25.909-10.729 1.046-12.3 1.046-12.3-13.084 5.496-22.242 6.804c-9.163 1.309-57.875 5.255-57.471 14.655.525 12.195 11.254 8.27 11.254 8.27s6.804 11.78 6.28 17.796c-.526 6.021-4.188 9.684-5.234 13.871s-.783 6.28-2.354 8.638c-1.571 2.354-7.33 7.062-10.992 8.633s-12.562 4.45-12.562 4.45-1.309-4.97-2.88-6.804c-1.566-1.834-4.708-4.709-4.708-4.709s-2.096-4.45-1.57-6.545c.524-2.092 2.095-4.709 2.095-4.709l-1.312-3.404s0-3.925.262-6.804 3.142-6.542 3.142-6.542l-1.571-1.57s-.52-4.446-1.833-8.113c-1.309-3.663-4.184-10.104-4.184-10.104l3.663-6.017-2.88-2.358-.524-2.617s1.05-4.183 2.879-5.496c1.833-1.308 4.712-3.925 4.712-3.925l-.525-4.708h-3.4l-2.096 1.308-1.308 2.354h-10.104l-.258-5.495s-1.834-2.88-3.667-2.88c-1.83 0-3.4 2.88-3.4 2.88l-.263 5.758h-9.683l-2.617-3.142h-3.4l-1.57 2.88.262 2.354 6.017 4.975 1.833 2.616.263 4.188-.263 2.879-1.308 1.046h-3.925s-5.784.866-8.375 3.925c-5.234 6.179-2.092 9.841-2.092 9.841s4.392-2.087 6.804-3.141c4.184-1.83 6.804 2.358 6.804 2.358s-6.283 1.83-8.637 3.4-13.083 5.496-13.083 5.496l8.112-.783s7.325-2.359 10.988-3.142c3.666-.783 7.329 1.046 7.329 1.046l-12.038 6.02 6.017-.262s3.925-1.308 5.237-1.308c1.309 0 4.446.783 4.446.783z" stroke-width="2.3333352"/><path d="M499.088 104.233c-.054 2.942-1.45 2.1-2.625 5.18 1.08-.234 3.17-2.292 5.53-.909M510.746 117.092c.875 2.137-.8 4.325-1.308 5.841 1.146-.433 2.542-4.575 5.72-3.158" stroke-width="2.3333352"/><path d="M499.105 105.82c.075.693.183 1.06.404 1.713M550.717 39.592c.52.591.917 1.046 1.242 1.766M539.2 90.52l.525 6.284 3.142 4.709 4.188 4.45 3.662-2.617 6.017 8.375 7.85-8.375s3.404 2.092 4.975 1.57c1.57-.524 2.775-5.758 4.346-5.758s2.616 1.571 3.925.784c1.308-.784 1.57-5.234 3.4-6.804 1.833-1.567 5.758-4.446 5.758-4.446M593.53 98.896s-1.375 5.387-3.4 10.73c-2.88 7.59-4.075 17.232-4.075 17.232s5.645 1.509 10.091.984c4.45-.521 10.467-2.617 14.654-4.709 4.188-2.095 12.563-7.487 15.967-10.366 3.4-2.88 9.942-13.609 11.25-15.704 1.309-2.092 4.713-12.821 4.971-16.225.263-3.4 1.05-13.867 0-18.842-1.046-4.971-3.925-13.708-6.28-16.746-2.353-3.042-6.803-8.537-6.803-8.537l4.712-1.567" stroke-width="2.3333352"/><path d="M597.717 107.008s6.804-1.57 10.208-3.4c3.4-1.833 9.942-8.375 9.942-8.375M504.942 36.908S499.175 41.5 496.3 44.9c-2.879 3.4-7.241 13.696-7.762 18.93-.525 5.233-1.05 10.728.52 17.795s6.284 16.488 7.75 19.104 6.2 10.075 8.817 12.171c2.617 2.092 12.38 9.183 15.259 10.492s14.391 5.237 17.008 4.975 4.713-1.571 4.713-1.571-.788-7.75-2.096-11.15c-1.309-3.404-4.446-10.992-4.709-13.346-.262-2.358-1.045-6.283-1.045-6.283M555.163 33.313h28.683M554.38 36.192c2.029 9.546 17.2 8.566 17.2 18.379V59.8l-13.013.104" stroke-width="2.3333352"/><path d="M552.55 48.125c1.109-.196 1.896-.454 3.071-.454 4.775 0 9.484.783 10.988 5.362v1.7c-1.175 0-1.896.13-3.075.13-2.484 0-3.859-.521-6.342-.521M555.425 37.238h16.613M558.792 37.383c4.188.98 4.483 1.688 8.15 4.305l2.025-.33c.196-1.175.454-3.033.454-4.212" stroke-width="2.3333352"/><path d="M549.409 46.033c2.091.325 3.466.721 5.166 1.767M551.5 49.433c3.534-.716 5.888-.391 9.355-1.504M551.763 54.146c2.42-.067 3.73-.196 6.146-.196.854 0 1.375.325 2.158.458M614.717 45.596c2.092-.983 2.167-1 4.13-2.113.133.784.762 3.217.828 4M499.163 36.192c2.292.72 3.642 1.712 5.862.796M597.55 127.675c3.746-.133 3.871 3.158 5.667 5.342.492-1.363-1.662-5.663.217-7.03M616.821 119.73c2.796-.88 3.792 2.287 5.95 3.858-.158-1.525-2.829-5.121-1.566-7.13M631.476 106.746c1.325-.658 5.412 1.467 5.412 1.467-.72-1.571-2.725-2.942-2.6-4.8M640.105 92.138c1.733-2.392 4.9.275 5.937 0-1.766-1.567-3.704-1.471-4.425-5.105M643.534 74.867c.708-1.471 1.942-1.88 3.317-2.338-.917-.654-2.071-1.683-2.988-2.404M641.792 56.45c.784-1.437 2.309-1.975 4.009-2.237-1.438-.525-4.446-2.163-5.95-2.684M527.909 126.042l.562 2.325-.887 5.954c2.396-2.396 2.679-6.975 4.52-7.246M490.905 87.67c-.134 2.226-2.117 2.926-3.555 4.563 1.7-.133 3.38-1.02 5.08-1.02M487.855 71.217c-1.18.52-2.721 1.312-3.963 1.704 1.113.525 3.088.967 4.07 1.892M491.775 53.017c-1.35.783-3.366.604-5.004.866.525.588 2.988 2.134 3.154 3.221M529.78 127.32v.98M489.759 54.167v.983M490.367 88.95l.525 3.667M619.7 118.42v.984M641.159 89.213l.979.458M558.042 27.817h6.213M558.896 27.225l-2.096-1.046c.592-2.354 3.205-2.483 4.384-4.641 1.112 2.22 3.596 2.483 4.383 4.904-.787.325-1.308.52-2.096.783M570.755 27.692h6.216M571.609 27.104l-2.092-1.05c.588-2.354 3.204-2.483 4.38-4.641 1.112 2.225 3.595 2.483 4.383 4.904-.788.329-1.309.525-2.096.787" stroke-width="2.3333352"/><path d="M641.68 53.363c.396.783.787 1.304 1.246 2.025M512.25 93.4c6.28 6.804 10.467 9.946 19.03 12.23M521.409 178.613c.85 0 2.679-.788 3.529-.788 4.842 0 7.196-2.483 11.575-4.642.983 3.988 2.296 8.375 2.95 12.496M594.055 185.417l2.55-11.184c3.858.588 5.691 2.221 9.416 3.138M550.717 198.658c3.008-2.679 5.43-3.725 7.783-6.929.913 5.559 2.359 12.167 7.917 12.167 5.233 0 6.275-5.63 7.975-10.6 1.438 1.9 5.204 3.796 7.363 4.842M546.055 222c2.029-.783 4.008-2.075 5.904-3.12 0 4.445 1.566 9.808 6.016 9.808 4.055 0 5.755-3.534 7.846-6.996 2.03 3.92 4.45 6.996 8.83 6.996 4.187 0 4.512-5.625 4.187-9.809 2.55.588 5.346 2.221 7.896 2.742M566.155 204.942l-.413 18.129M590.13 258.067c-1.046-2.292-1.896-3.663-2.292-6.213" stroke-width="2.3333352"/><path d="M553.855 267.488c2.158-15.634 4.45-23.809 7-39.438M572.08 228.604l5.72 36.45M543.13 254.663c1.304-2.813 1.7-4.513 3.07-7.259" stroke-width="2.3333352"/></g></svg>