<svg clip-rule="evenodd" fill-rule="evenodd" stroke-linejoin="round" stroke-miterlimit="2" viewBox="0 0 1184 517" width="140" height="61" xmlns="http://www.w3.org/2000/svg"><g fill-rule="nonzero"><g fill="#005794"><path d="M0 320.43h33.604v195.037H0zM176.133 515.467h29.709V320.43h-46.809L132.03 476.46h-1.504l-28.508-156.03H54.913v195.038h30.304V422.15c0-10.204-.9-35.408-1.8-59.412 3 18.604 6 38.708 8.7 54.912l18.904 97.817h40.208l18.004-98.117c2.4-14.404 5.1-34.208 7.805-52.512-.3 23.404-.905 47.708-.905 57.608zM293.459 436.555H259.55v-84.921h33.909zm8.7-116.126h-76.213v195.038h33.604V466.86h39.909c20.104 0 27.304-12.904 27.304-32.713v-78.912c0-24.005-5.4-34.805-24.604-34.805zM376.575 351.634h54.913v-31.205h-88.521v195.038h33.608V440.75h40.809v-30.904h-40.809zM503.805 404.146l2.7-32.104c-17.705 0-31.509 8.4-36.909 12.6l-1.2-11.4h-30.608v142.225h32.108v-111.32zM579.721 486.059h-32.108v-82.813h32.108zm1.2-112.817-1.2 10.5c-8.404-6-21.304-11.7-36.008-11.7-20.404 0-27.908 12.3-27.908 30.304v84.017c0 17.704 7.504 30.304 27.908 30.304 19.204 0 33.304-9.604 36.008-11.7l1.5 10.5h30.304V373.242zM699.442 372.042c-16.504 0-29.708 7.8-36.908 12.3l-1.2-11.1h-30.608v142.225h32.108v-112.22h30.308v112.22h31.8v-114.32c0-19.505-7.196-29.105-25.5-29.105zM807.163 441.955v-2.705l31.804-66.008H803.56l-23.704 52.808h-3.138c-.437-8.65-9.52-229.767-9.52-229.767s7.104-5.233 15.166-10.87c8.05-5.638 20.267-13.159 20.267-13.159l-1.884-3.079h-6.979l-2.412-10.067h5.366l-2.687-4.833-28.992-1.075-.362-13.575 11.5-2.8v-.804s-5.771-.467-11.613-.638l-.15-5.683 11.763-2.87v-.81s-5.946-.474-11.88-.64l-.154-5.617 12.034-2.934v-.804s-6.125-.492-12.154-.65l-.146-5.546 12.3-2.996v-.808s-6.309-.508-12.421-.658l-.146-5.475 12.567-3.059v-.804s-6.492-.525-12.688-.666l-.141-5.405 12.829-3.129v-.8s-6.684-.537-12.95-.675l-.146-5.325 13.096-3.191v-.805s-6.871-.558-13.225-.675l-.054-2.15L761.417 41l-1.941-6.846-.338-30.466h-1.746l-.329 30.466-1.95 6.846-1.48 32.208-.053 2.15c-6.35.117-13.23.675-13.23.675v.805l13.1 3.191-.137 5.325c-6.267.138-12.962.675-12.962.675v.8l12.837 3.13-.146 5.404c-6.191.141-12.691.666-12.691.666v.804l12.575 3.059-.15 5.475c-6.109.15-12.425.658-12.425.658v.808l12.308 2.996-.158 5.546c-6.021.158-12.15.65-12.15.65v.804l12.033 2.934-.146 5.616c-5.942.167-11.887.642-11.887.642v.808l11.77 2.871-.15 5.683c-5.841.171-11.62.638-11.62.638v.804l11.508 2.8-.37 13.575-28.988 1.075-2.688 4.833h5.37l-2.412 10.067h-6.979l-1.883 3.08s12.22 7.52 20.267 13.158c8.058 5.637 15.17 10.87 15.17 10.87s-3.633 210.034-3.795 240.734l-1.705 78.45h31.805v-57.612h4.504l27.008 57.612h35.409zM918.488 345.934l2.696-29.709h-30.608c-23.104 0-28.2 11.404-28.2 31.809v25.208h-17.109v30.004h17.109v112.221h31.804v-112.22h20.7v-30.005h-20.7v-27.308zM991.097 515.467h30.308V373.242h-31.808v112.517h-30.309V373.242h-31.8v115.817c0 18.004 7.8 27.608 25.204 27.608 16.5 0 30.005-7.5 36.905-12.004zM1106.622 404.146l2.7-32.104c-17.704 0-31.513 8.4-36.909 12.6l-1.2-11.4h-30.604v142.225h32.1v-111.32zM1181.03 373.242h-28.2v-32.413h-31.808v143.434c0 20.1 7.8 31.204 28.804 31.204h30.608V485.76h-27.604v-82.513h25.804z"/></g><path d="M1177.91 334.988a3.195 3.195 0 0 1-3.192-3.192l-.134-128.546c-8.82-.012-33.296-.05-39.316-.008-4.667.033-6.909.496-6.909 10.604v61.567c0 .846-.337 1.662-.937 2.258-.6.6-1.413.938-2.259.938h-.004l-5.475-.009v32.33a3.193 3.193 0 0 1-3.196 3.191h-13.716a3.193 3.193 0 0 1-3.196-3.192v-59.925l-48.925.025c-1.517 0-4.35 1.075-4.35 3.667v25.513a3.197 3.197 0 0 1-3.192 3.191l-11.796.004c-.854 0-1.679-.345-2.275-.954a3.178 3.178 0 0 1-.92-2.287c.008-.438.637-43.48.412-61.13-.008-.47.012-.995.03-1.545.02-.538.057-1.404.012-2.013h-2.784c-5.146-.012-14.404-.029-22.946 0-8.57.03-13.358.017-17.42.009l-5.171-.009c-2.488 0-3.371 1.796-3.371 3.334 0 9.85-.03 43.191-.03 43.191a3.187 3.187 0 0 1-3.187 3.188s-27.829.025-40.2.025c-.254 0-.425.029-.529.05-.02.096-.037.262-.037.525v29.033a3.18 3.18 0 0 1-.938 2.258c-.6.6-1.412.938-2.258.938h-23.142a3.195 3.195 0 0 1-3.192-3.167l-.65-71.983c-13.25-.013-63.82-.088-68.054-.063-1.17.005-1.804-.004-2.192-.004-.041 2.288.055 8.884 0 16.704-.112 16.205-.266 38.392-.529 46.267-.066 1.767-1.25 4.23-1.95 5.542a3.207 3.207 0 0 1-2.816 1.687l-7.617.009h-.004a3.198 3.198 0 0 1-2.188-.871c-.425-.396-10.375-9.771-15.137-14.738-1.467-1.533-2.242-3.737-2.242-6.37 0-10.192-.008-22.309-.012-29.013l-.005-4.742c-.079-.004-.175-.012-.283-.012-1.325-.025-4.042-.013-8.454.008-3.304.017-7.55.038-12.846.05h-.004l-.008-6.387s9.525-.034 12.825-.05c4.5-.025 7.275-.042 8.625-.009 4.029.092 6.533 2.48 6.533 6.23v4.904c.008 6.708.017 18.829.017 29.02 0 1.08.241 1.717.466 1.95 3.825 3.988 11.363 11.163 13.98 13.642l4.337-.008c.217-.513.37-.95.408-1.167.25-7.68.404-29.82.517-45.987.054-8.184.1-14.7.142-16.742.062-3.033 2.308-6.288 8.42-6.3 4.859-.021 71.238.07 71.238.07a3.197 3.197 0 0 1 3.196 3.163l.642 71.98h16.783v-25.842c0-4.296 2.67-6.959 6.958-6.959 9.813 0 29.342-.016 37.004-.025.009-8.57.025-32.008.025-39.995 0-5.542 4.196-9.717 9.759-9.717l5.187.004c4.05.008 8.821.02 17.384-.004 8.558-.033 17.825-.017 22.979-.008l3.379.008c2.067 0 3.354.887 4.067 1.629 1.9 1.975 1.779 4.896 1.7 7.02-.021.426-.038.838-.034 1.205.196 14.892-.22 47.654-.362 58.067h5.362v-22.317c0-6.212 5.575-10.054 10.738-10.054l52.12-.025a3.191 3.191 0 0 1 3.197 3.192v59.925h7.325v-32.33a3.195 3.195 0 0 1 3.195-3.191h.005l5.475.008v-58.375c0-10.146 2.254-16.917 13.254-16.992 7.375-.046 42.208.017 42.558.017a3.197 3.197 0 0 1 3.192 3.192l.133 131.729a3.2 3.2 0 0 1-3.192 3.196zM90.758 161.833v.038zm621.23 75.538h-.008zm-109.813 78.396h-11.329c-.85 0-1.662-.338-2.266-.942a3.2 3.2 0 0 1-.93-2.266c.005-.421.196-42.492-.154-55.075-.037-1.405-.879-3.188-1.691-4.917l-.396-.854c-1.242-2.688-2.609-5.83-3.88-8.75-1.454-3.346-2.824-6.5-3.645-8.134-.234-.454-.538-.529-.571-.537l-13.108.02c-.392.167-1.484 1.2-3.646 5.109l-.388.696c-1.812 3.167-3.766 6.329-5.658 9.383-.78 1.263-1.563 2.525-2.333 3.792a3.201 3.201 0 0 1-2.725 1.529h-.017l-1.196-.004a3.204 3.204 0 0 1-3.117-2.467c-.125-.533-.279-1.07-.437-1.604-.413-1.4-.883-2.987-.9-4.717-.146-12.475-.27-26.17-.18-41.766 0-.625-.116-.917-.153-.967-.055-.054-.421-.204-1.221-.204-.484 0-1.446.008-2.667.02-2.962.03-7.454.071-10.575.038-2.175-.025-8.796-.096-8.833-7.446-.013-2.058-.017-4.412.033-6.816-2.467-.871-7.796-2.28-12.237-3.45-14.171-3.734-21.417-5.892-24.742-8.15-1.98 1.7-5.98 3.212-12.863 5.695-3.004 1.084-7.325 2.642-9.141 3.6.108 21.588.096 43.5.083 64.709l-.004 14.367c-.004 10.387.296 34.016.3 34.254.008.854-.321 1.679-.921 2.287-.6.604-1.42.95-2.275.95h-10.425a3.2 3.2 0 0 1-3.192-3.091c-.016-.48-.379-11.771-.3-16.571 0-.009.005-.017.005-.025a5.953 5.953 0 0 0-.842-.109c-2.45-.204-4.688-2.12-5.733-3.816-.98-1.588-.892-3.267-.834-4.371.013-.22.025-.433.025-.646l-.016-11.17c-.013-9.763-.021-19.86-.138-29.78-.046-.225-.467-.946-.746-1.42a24.132 24.132 0 0 1-.837-1.526c-.125-.27-.284-.533-.438-.796-.433-.741-.97-1.662-1.233-2.783-.092-.383-.242-1.03-2.413-1.03h-.012c-8.75.005-17.496.047-26.242.088l-11.937.05c-1.271.005-1.363.23-1.534.63-.479 1.145-1.146 2.162-1.737 3.058-.43.658-.838 1.279-1.1 1.837-.446.938-.684 1.775-.688 2.434-.075 8.62-.1 17.237-.129 25.854-.017 4.867-.033 9.725-.058 14.592-.004 1.308-.013 2.933-.55 4.595-1.584 4.892-7.267 4.584-9.13 4.48-6.333-.346-6.804-4.788-6.795-6.138 0-.554-.013-1.112-.025-1.675-.013-.567-.025-1.133-.025-1.696l.016-102.579c0-.58-.12-.813-.15-.846-.054-.05-.283-.12-.287-.12-.588.003-13.213.103-18.367-.017-.25 0-.425.016-.533.041.117 1.538.08 2.371.033 3.33-.012.333-.029.7-.041 1.141a3.193 3.193 0 0 1-3.192 3.104h-.008l-29.955-.07a3.195 3.195 0 0 1-3.187-3.2l.025-20.534-6.917-.042a3.19 3.19 0 0 1-3.17-3.141l-.284-18.08-3.58-.041a3.196 3.196 0 0 1-3.157-3.192v-13.27h-3.667a3.192 3.192 0 0 1-3.192-3.192V80.95h-3.212v211.463a3.195 3.195 0 0 1-3.192 3.196h-12.13a3.196 3.196 0 0 1-3.195-3.196V253.22h-35.337a3.192 3.192 0 0 1-3.188-2.987c-.017-.255-.392-6.155-.32-8.846a4.192 4.192 0 0 0-.476-.067c-3.996-.4-6.4-2.75-6.429-6.296-.033-4.387-.083-13.183-.112-17.908l-50.109.02c-.004 4.522-.008 12.792.038 17.655.016 1.908-.642 6.333-7.08 6.637.009 16.446-.283 49.159-.283 49.488a3.198 3.198 0 0 1-3.196 3.167h-.004l-15.992-.017a3.196 3.196 0 0 1-3.191-3.183c0-.692-.209-69.467.087-102.942.017-2.1-.741-3.338-2.004-5.38-.458-.754-.946-1.541-1.417-2.416-1.916-3.542-1.95-7.958-1.975-11.854-.016-2.138-.033-4.167-.35-5.663-.65-.57-2.512-1.504-3.554-2.029-2.37-1.192-4.087-2.054-4.912-3.583-.53-.988-2.35-5.238-5.788-13.292-2.975-6.967-6.704-15.692-9.283-21.442-3.975 8.196-11.317 24.009-16.233 34.713a3.196 3.196 0 0 1-1.475 1.525c-2.763 1.383-5.638 3.167-6.646 4.1l-.025 1.15c-.038 1.583-.067 2.73.012 4.604.234 5.442.067 11.75-4.837 17.663.012 0-.054.22-.054.958 0 17.704.57 93.654.575 94.42a3.194 3.194 0 0 1-.925 2.276c-.6.6-1.417.942-2.267.942H67.967a3.209 3.209 0 0 1-2.259-.934 3.193 3.193 0 0 1-.933-2.266s.046-27.93.046-32.967c0-.525-.458-1.683-.863-2.713-.804-2.033-1.8-4.566-1.8-7.55 0-2.729-.041-7.454-.079-11.77-.029-3.634-.058-6.971-.058-8.588 0-.596-.238-1.687-1.371-3.48-2.262-3.578-4.858-7.34-8.167-11.828-.17-.117-.495-.263-.654-.288l-1.262.004c-25.204-.012-30.963-.012-31.359-.004-.07.021-.379.167-.545.283-2.492 3.334-5.03 6.955-7.759 11.063l-.483.713c-.48.7-1.28 1.87-1.317 2.32 0 2.055.025 6.196.054 10.525.03 4.742.055 9.705.055 12.4 0 2.4-.871 4.142-1.638 5.68-.504 1-.942 1.875-1.183 2.966l-.009 44.925a3.193 3.193 0 1 1-6.383 0l.004-45.241c0-.192.021-.384.054-.571.388-2.117 1.175-3.684 1.805-4.942.637-1.267.966-1.967.966-2.817 0-2.687-.033-7.633-.058-12.362-.03-4.342-.054-8.504-.054-10.571 0-2.362 1.35-4.337 2.433-5.92l.433-.638c2.83-4.259 5.467-8.017 8.063-11.488 1.125-1.504 3.542-2.692 5.5-2.712.592-.005 11.167-.005 31.425.004h1.342c2.016 0 4.483 1.204 5.612 2.746 3.446 4.67 6.154 8.591 8.525 12.341 1.583 2.513 2.358 4.767 2.358 6.892 0 1.604.025 4.92.059 8.533.037 4.334.079 9.084.079 11.825 0 1.771.687 3.517 1.354 5.209.675 1.704 1.308 3.316 1.308 5.054 0 3.987-.029 22.296-.041 29.78h8.837c-.108-14.734-.554-75.622-.554-91.251 0-.958 0-3.208 1.53-5.042 3.128-3.775 3.603-7.737 3.37-13.312-.087-2.088-.054-3.384-.017-5.025l.042-1.875c.013-1.217.05-3.709 9.146-8.421 18.28-39.788 18.992-40.246 19.983-40.88a3.192 3.192 0 0 1 4.513 1.125c1.8 3.213 7.587 16.763 12.233 27.65 2.292 5.36 4.65 10.884 5.375 12.434.496.325 1.575.867 2.32 1.242 3.126 1.57 6.076 3.05 6.784 5.766.6 2.292.617 4.863.638 7.584.025 3.308.05 6.725 1.208 8.866.413.763.838 1.45 1.242 2.105 1.466 2.383 2.983 4.845 2.95 8.787-.259 29.3-.134 85.717-.096 99.684l9.642.012c.075-8.704.266-33.18.262-46.446-.004-4.02 1.992-6.079 5.925-6.196.583-.016.946-.079 1.15-.133v-.07c-.062-6.972-.029-20.91-.029-20.91a3.194 3.194 0 0 1 3.192-3.187l56.466-.029h.005a3.192 3.192 0 0 1 3.191 3.18s.088 14.691.13 20.941c.141.042.358.083.674.117 5.846.579 6.309 4.704 6.234 6.45-.046 1.146.041 3.437.141 5.425h35.513a3.195 3.195 0 0 1 3.192 3.191v39.192h5.741V77.754a3.193 3.193 0 0 1 3.196-3.191h9.596a3.193 3.193 0 0 1 3.196 3.191v32.471h3.666a3.192 3.192 0 0 1 3.192 3.192v13.308l3.533.042a3.193 3.193 0 0 1 3.155 3.141l.283 18.059 6.97.046a3.186 3.186 0 0 1 3.172 3.195l-.025 20.517 23.629.063c-.013-.188-.025-.388-.046-.613-.17-1.879.404-3.633 1.617-4.929 1.295-1.388 3.22-2.12 5.445-2.07 5.05.12 17.98.016 18.109.016.429-.009 2.891.025 4.85 1.937.95.925 2.079 2.617 2.079 5.417l-.017 102.58c0 .52.013 1.04.025 1.562.009.496.021.983.021 1.475.175.037.421.075.758.091 1.813.1 2.505-.075 2.738-.166.2-.709.204-1.65.208-2.563.025-4.858.042-9.716.059-14.579.029-8.63.058-17.258.129-25.887.012-1.6.45-3.321 1.3-5.117.454-.958 1.004-1.792 1.537-2.604.48-.73.934-1.421 1.188-2.025 1.258-3 3.746-4.53 7.396-4.546l11.933-.05c8.754-.042 17.508-.08 26.263-.088h.02c6.534 0 8.213 4.171 8.634 5.967.046.183.333.68.529 1.008.242.421.483.842.687 1.267.167.35.375.7.584 1.05.712 1.217 1.596 2.725 1.616 4.575.121 9.954.134 20.067.142 29.85l.017 11.163c0 .32-.017.658-.034.995-.012.246-.033.6-.02.796.225.284.662.634.883.713 4.358.341 6.617 2.562 6.55 6.579-.05 3.137.1 9.4.204 13.167h4.092c-.08-6.88-.263-22.996-.259-31.105l.005-14.366c.012-21.634.025-44.009-.088-66.005-.017-3.483 3.9-4.895 13.367-8.308 3.208-1.158 8.329-3 10.233-4.108v-10.054a3487.75 3487.75 0 0 1 .02-19.809c.005-1.158.3-2.22.543-3.07.079-.296.162-.588.225-.871a3.185 3.185 0 0 1 3.329-2.509c.079.004.137 0 .191 0 .25-.012.496-.016.85.004a3.2 3.2 0 0 1 2.967 2.771c.038.3.125.65.208 1.009.196.841.417 1.8.417 2.75.008 4.537.004 9.02 0 13.491-.008 5.213-.012 10.413 0 15.684 3.15 1.92 15.55 5.191 22.413 7 14.862 3.916 17.145 4.516 17.041 7.92-.087 2.95-.087 5.946-.075 8.488.004.537.067.783.092.854.05-.025.608.217 2.42.238 3.084.029 7.522-.013 10.447-.038 1.254-.012 2.237-.02 2.729-.02 2.441 0 4.375.703 5.754 2.091 1.346 1.35 2.02 3.204 2.008 5.504-.087 14.904.021 28.075.159 40.104 1.52-2.462 3.05-4.97 4.466-7.458l.35-.625c1.742-3.137 4.654-8.392 9.234-8.392l13.225-.016c2.05 0 4.75 1.25 6.158 4.046.9 1.791 2.246 4.879 3.8 8.458 1.25 2.879 2.6 5.97 3.817 8.62l.383.813c1.037 2.213 2.217 4.721 2.292 7.454.295 10.625.212 41.934.17 52.075h4.934l-.004-12.162c0-1.096.558-2.117 1.479-2.704l5.404-3.421c-.196-9.788-1.092-57.133-1.075-86.425 0-.909-.05-1.83-.158-2.754-.055-.496-.146-1.246-2.663-1.646-1.417-.23-2.704-.675-3.837-1.067-.455-.154-.905-.308-1.359-.45-.837-.258-1.533-.846-1.925-1.629s-.441-1.692-.141-2.513l.329-.895a3.187 3.187 0 0 1 2.796-2.063c.429-.029.862-.062 1.291-.096a44.71 44.71 0 0 1 3.475-.158c3.684 0 7.363.017 11.042.033 3.03.013 6.05.03 9.07.034h.142c3.684 0 5.917-.163 6.65-.488.15-.567.15-2.075.15-3.308 0-4.409 2.609-6.575 7.759-6.575l9.092-.021c5.6-.008 11.966-.02 13.604-.02 2.212 0 4.708.228 6.42 1.962 1.113 1.125 1.667 2.666 1.65 4.583-.108 9.867-.104 19.904-.1 29.617l.005 9.5c-.004.587.704 2.033 7.241 2.746.992.108 1.538.17 2.163.487 2.329 1.188 2.467 1.258 2.612 42.13a6075.7 6075.7 0 0 1-.004 35.658h9.38l.045-47.034a3.197 3.197 0 0 1 1.975-2.946l15.109-6.27-.013-15.063c0-2.37 2.613-5.437 5.392-5.437l17.804-.025c9.654-.009 7.98.004 9.558.004l-.016 6.391c-.842-.02-16.334 0-22.88.009l-3.47.008.012 16.246a3.197 3.197 0 0 1-1.967 2.95l-15.116 6.27-.05 48.097a3.192 3.192 0 0 1-3.196 3.187h-15.771c-.85 0-1.662-.337-2.262-.937a3.207 3.207 0 0 1-.93-2.267c.105-25.42.042-65.567-.512-75.28-4-.537-11.496-2.183-11.492-8.924v-9.5c-.004-9.721-.008-19.771.096-29.667-.3-.054-.825-.108-1.683-.108-1.638 0-7.996.008-13.592.02l-9.104.017c-.663 0-1.096.042-1.371.083 0 3.388-.004 5.971-1.958 7.925-2.017 2.013-5.096 2.367-11.196 2.367h-.184c-3.029-.004-6.062-.02-9.087-.033-1.27-.009-2.542-.013-3.804-.017.708 1.104 1.041 2.292 1.166 3.367.138 1.179.205 2.354.205 3.508-.025 32.559 1.091 87.538 1.104 88.084a3.205 3.205 0 0 1-1.48 2.762l-5.437 3.45.004 13.6a3.19 3.19 0 0 1-3.196 3.196z" fill="#5178ab"/></g></svg>