<svg clip-rule="evenodd" fill-rule="evenodd" stroke-linejoin="round" stroke-miterlimit="2" viewBox="0 0 2195 593" width="300" height="81" xmlns="http://www.w3.org/2000/svg"><path d="M0 0h2194.24v592.794H0z" fill="none"/><g fill-rule="nonzero"><path d="M54.621 506.559h39.992c1.154 0 1.483-.821 1.483-4.442v-.658c0-3.459-.329-4.28-1.483-4.28H54.621v-44.437h47.892c1.154 0 1.483-.825 1.483-4.446v-.658c0-3.454-.329-4.28-1.483-4.28h-59.25V560.05c0 1.317.825 1.809 5.433 1.809h.821c4.28 0 5.104-.492 5.104-1.809zm72.546-30.446c0-.658-.329-1.154-4.77-1.154h-.826c-4.112 0-4.608.496-4.608 1.154.167 9.05.33 18.104.33 26.992v57.275c0 1.15.824 1.479 4.774 1.479h.988c3.95 0 4.937-.33 4.937-1.48v-18.433c0-10.041.163-20.737.492-25.512.496-8.392 2.962-16.13 7.737-22.217 4.609-5.762 11.355-9.875 20.242-9.875 1.483 0 1.646-1.812 1.646-5.104v-1.317c0-2.633-.33-3.291-1.15-3.454-1.154-.33-2.8-.496-4.938-.496-9.712 0-19.587 7.571-24.358 21.234zm111.109 25.017c0-6.75 0-13.825.166-18.93 0-1.645.163-3.783.163-5.266 0-1.646-.163-1.975-3.621-1.975h-1.15c-3.458 0-4.446.329-4.608 1.646l-.825 8.725c-4.938-7.242-13.005-12.017-24.359-12.017-21.891 0-37.691 18.433-37.691 46.58 0 23.862 11.191 43.612 36.208 43.612 11.52 0 21.4-4.771 26.5-13.33l1.317 10.205c.166 1.15.658 1.479 4.445 1.479h.492c3.292 0 4.117-.33 4.117-1.317-.825-11.683-1.154-21.067-1.154-35.383zM227.58 521.37c0 15.471-1.317 20.409-5.925 25.675-4.117 4.609-10.209 6.75-18.109 6.75-19.583 0-25.675-17.446-25.675-34.729 0-21.887 10.205-35.88 26.83-35.88 10.366 0 17.445 5.105 22.879 13.497zm47.875-44.929c0-1.154-1.154-1.483-4.446-1.483h-1.15c-3.13 0-4.446.329-4.446 1.483.33 7.404.33 14.975.33 21.725v61.883c0 1.15.824 1.809 4.774 1.809h1.317c3.454 0 4.608-.659 4.608-1.809v-32.425c0-10.037 0-19.091.492-23.862.496-4.446 2.304-8.888 4.937-11.85 4.938-5.267 11.359-8.067 20.409-8.067 8.066 0 14.65 1.975 18.27 6.254 4.609 5.434 5.267 12.509 5.267 26.83v43.12c0 1.15.821 1.809 4.771 1.809h1.317c3.783 0 4.608-.659 4.608-1.809v-50.529c0-13.329-2.466-21.887-8.062-27.65-5.434-5.596-13.496-8.558-23.538-8.558-13 0-22.712 4.937-28.967 13.662zm94.979 85.417c2.633 0 4.608-.33 4.608-1.48v-34.562l12.017-10.37 27.32 44.603c.988 1.48 1.15 1.809 6.747 1.809h.658c3.95 0 5.763-.33 4.446-2.304L394.96 508.7c12.34-11.52 22.712-24.029 27.978-31.929.988-1.483.163-1.812-4.279-1.812h-.825c-3.95 0-5.1.496-5.925 1.646-7.57 10.37-17.608 21.233-27.32 29.462l-9.547 8.23v-69.455c0-1.154-1.808-1.483-4.77-1.483h-1.317c-2.633 0-4.608.329-4.608 1.483V560.38c0 1.15 1.808 1.479 4.77 1.479zm111.588-77.684c1.154 0 1.483-.82 1.483-3.95v-1.15c0-3.291-.33-4.116-1.483-4.116H461.78v-6.417c0-16.625 3.783-25.842 18.925-25.842 4.446 0 8.396.825 11.85 1.975 1.483.496 1.975-.491 2.8-3.291l.33-1.15c.657-2.634.657-3.788-.497-4.28-4.608-1.812-9.546-2.8-14.975-2.8-20.737 0-29.133 13.005-29.133 35.059v6.746h-11.52c-1.15 0-1.48.825-1.48 4.116v1.15c0 3.13.33 3.95 1.48 3.95h11.52v76.038c0 1.154.987 1.646 4.775 1.646h1.317c3.454 0 4.608-.492 4.608-1.646v-76.038zm78.816 76.038c.167 1.483.659 1.646 4.28 1.646h1.316c3.292 0 4.117-.163 3.95-1.975-.491-9.05-.491-17.609-.491-26.167v-57.112c0-1.15-.825-1.646-4.775-1.646H563.8c-3.95 0-4.608.496-4.608 1.646v40.983c0 17.608-2.467 24.192-7.075 28.8-4.446 4.446-10.534 6.912-18.763 6.912-8.725 0-14.65-2.304-18.27-6.583-4.28-5.1-4.61-12.508-4.61-26.662v-43.45c0-1.15-.82-1.646-4.77-1.646h-1.317c-3.95 0-4.608.496-4.608 1.646v50.691c0 13.496 2.137 22.054 7.733 27.817 5.104 5.596 14.154 8.392 24.359 8.392 13.166 0 22.712-5.267 28.146-14.646zm47.975-84.1c0-.658-.329-1.154-4.775-1.154h-.82c-4.117 0-4.609.496-4.609 1.154.163 9.05.33 18.104.33 26.992v57.275c0 1.15.82 1.479 4.77 1.479h.988c3.95 0 4.937-.33 4.937-1.48v-18.433c0-10.041.167-20.737.496-25.512.492-8.392 2.963-16.13 7.733-22.217 4.609-5.762 11.359-9.875 20.246-9.875 1.48 0 1.646-1.812 1.646-5.104v-1.317c0-2.633-.33-3.291-1.154-3.454-1.15-.33-2.796-.496-4.938-.496-9.708 0-19.583 7.571-24.358 21.234zm88.855 7.075c.987 0 1.154-.658 1.154-3.783v-.496c0-3.125-.167-3.95-1.154-3.95h-23.205v-24.521c0-.658-.495-.988-4.775-.988h-1.15c-4.608 0-4.775.163-4.775.988v24.52H652.41c-.987 0-1.154.826-1.154 3.95v.497c0 3.125.167 3.783.988 3.783h11.52v53.983c0 10.863 1.317 16.954 5.763 21.234 3.454 3.125 8.72 5.1 15.47 5.1 5.597 0 12.013-.988 17.28-3.125.825-.33 1.154-.825.33-3.95l-.33-1.155c-.82-2.962-.82-3.454-2.304-2.962-3.621 1.317-8.23 1.975-12.509 1.975-4.608 0-7.57-.82-10.037-3.292-2.633-2.633-2.963-7.075-2.963-14.975v-52.833zm118.27 17.942c0-6.75 0-13.825.167-18.93 0-1.645.163-3.783.163-5.266 0-1.646-.163-1.975-3.621-1.975h-1.15c-3.458 0-4.446.329-4.608 1.646l-.825 8.725c-4.938-7.242-13-12.017-24.359-12.017-21.887 0-37.687 18.433-37.687 46.58 0 23.862 11.191 43.612 36.208 43.612 11.52 0 21.396-4.771 26.496-13.33l1.317 10.205c.166 1.15.658 1.479 4.445 1.479h.492c3.292 0 4.117-.33 4.117-1.317-.825-11.683-1.154-21.067-1.154-35.383zm-10.695 20.241c0 15.471-1.317 20.409-5.925 25.675-4.117 4.609-10.204 6.75-18.104 6.75-19.588 0-25.675-17.446-25.675-34.729 0-21.887 10.204-35.88 26.825-35.88 10.37 0 17.445 5.105 22.879 13.497zm42.212-46.412h-1.316c-3.292 0-4.28.166-4.28 1.483.33 6.417.33 13.988.33 21.725v62.213c0 1.15 1.812 1.479 4.775 1.479h1.316c2.634 0 4.609-.33 4.609-1.48v-32.754c0-10.037 0-19.091.491-23.862.496-4.446 1.646-8.067 3.788-10.863 4.77-6.42 12.179-9.054 20.57-9.054 8.063 0 13.826 1.975 17.446 6.254 4.609 5.434 5.267 12.509 5.267 26.83v43.45c0 1.15 1.813 1.479 4.775 1.479h1.317c2.633 0 4.608-.33 4.608-1.48v-44.766c0-4.938.163-9.054.492-11.85.496-4.446 1.646-8.067 3.787-10.863 4.771-6.42 11.85-9.054 20.571-9.054 8.067 0 13.825 1.975 17.446 6.254 4.608 5.434 5.267 12.509 5.267 26.83v43.45c0 1.15 1.812 1.479 4.775 1.479h1.316c2.634 0 4.609-.33 4.609-1.48v-50.858c0-13.329-2.471-21.887-8.067-27.65-5.43-5.596-13.825-8.558-23.533-8.558-12.838 0-23.042 4.937-29.955 15.967-1.154-2.963-2.8-5.267-4.775-7.409-5.429-5.596-12.837-8.558-22.545-8.558-12.18 0-21.725 4.28-27.817 13.167l-.492-10.038c0-1.317-1.316-1.483-4.775-1.483zm187.255-31.6h-.825c-5.1 0-6.088.329-6.088 1.646l-5.596 115.704c0 .82.659 1.15 4.938 1.15h.658c4.28 0 4.938-.33 4.938-1.15l3.783-101.88 32.917 80.484c.495 1.15 1.316 1.317 5.433 1.317h1.317c4.112 0 4.937-.167 5.429-1.317l31.766-81.8 3.784 103.196c0 .82.658 1.15 4.937 1.15h.988c4.279 0 4.937-.33 4.937-1.15l-4.937-115.704c0-1.317-.988-1.646-6.088-1.646h-.825c-5.925 0-6.912.496-7.404 1.646l-32.754 84.925-34.233-84.925c-.492-1.15-1.48-1.646-7.075-1.646zm187.358 57.77c0-6.75 0-13.824.167-18.929 0-1.645.162-3.783.162-5.266 0-1.646-.162-1.975-3.62-1.975h-1.15c-3.459 0-4.446.329-4.609 1.646l-.825 8.725c-4.937-7.242-13-12.017-24.358-12.017-21.888 0-37.688 18.433-37.688 46.58 0 23.862 11.192 43.612 36.209 43.612 11.52 0 21.395-4.771 26.495-13.33l1.317 10.205c.167 1.15.658 1.479 4.446 1.479h.492c3.291 0 4.116-.33 4.116-1.317-.825-11.683-1.154-21.067-1.154-35.383zm-10.696 20.242c0 15.471-1.316 20.409-5.925 25.675-4.116 4.609-10.204 6.75-18.104 6.75-19.587 0-25.675-17.446-25.675-34.729 0-21.887 10.204-35.88 26.825-35.88 10.37 0 17.446 5.105 22.88 13.497zm37.375-76.366c0 5.104 3.95 8.725 8.559 8.725s8.558-3.621 8.558-8.725c0-4.938-3.95-8.888-8.558-8.888s-8.559 3.95-8.559 8.888zm3.125 115.208c0 1.154.825 1.646 4.775 1.646h1.317c3.62 0 4.608-.492 4.608-1.646v-83.77c0-1.155-.987-1.484-4.775-1.484h-1.316c-3.455 0-4.609.329-4.609 1.483zm50.859-83.77c0-1.155-1.155-1.484-4.446-1.484h-1.15c-3.13 0-4.446.329-4.446 1.483.33 7.404.33 14.975.33 21.725v61.883c0 1.15.824 1.809 4.774 1.809h1.317c3.454 0 4.608-.659 4.608-1.809v-32.425c0-10.037 0-19.091.492-23.862.496-4.446 2.304-8.888 4.937-11.85 4.938-5.267 11.359-8.067 20.409-8.067 8.066 0 14.65 1.975 18.27 6.254 4.609 5.434 5.267 12.509 5.267 26.83v43.12c0 1.15.821 1.809 4.771 1.809h1.317c3.787 0 4.608-.659 4.608-1.809v-50.529c0-13.329-2.467-21.887-8.063-27.65-5.433-5.596-13.495-8.558-23.537-8.558-13 0-22.713 4.937-28.967 13.662zM91.4 318.675c-2.508 0-3.225 0-3.225 9.496v1.433c0 9.138.896 9.855 3.225 9.855h19.888v29.383c-4.658 1.433-10.392 2.33-15.408 2.33-22.755 0-32.967-16.663-32.967-44.793 0-28.845 11.825-44.254 34.4-44.254 10.392 0 17.737 3.225 25.8 8.6 1.792 1.254 2.867 1.254 6.63-5.016l2.15-3.584c4.478-7.346 3.94-8.42 1.433-10.212-10.034-7.167-22.755-11.646-37.805-11.646-17.558 0-32.608 6.092-42.82 17.02-10.571 11.467-16.484 28.31-16.484 49.272 0 41.745 19.35 66.291 56.975 66.291 14.871 0 32.609-3.762 41.746-8.6 1.97-1.075 2.15-2.15 2.15-3.762v-59.125c0-2.33-1.075-2.688-8.062-2.688zm144.192 33.504c1.434 0 1.792-2.329 1.792-9.316 0-27.95-14.154-48.196-41.388-48.196-27.412 0-44.075 20.783-44.075 50.167 0 30.458 17.917 48.016 46.046 48.016 12.542 0 25.8-3.583 34.759-8.6 2.15-1.254 2.329-2.329.179-8.42l-1.613-4.48c-1.97-5.375-2.866-6.091-4.837-5.196-8.063 3.405-16.484 5.734-25.263 5.734-13.616 0-21.679-6.988-23.65-19.709zm-58.05-17.558c2.33-12.004 8.78-19.35 18.634-19.35 10.033 0 15.587 8.242 16.662 19.35zm72.884 39.417c-2.867 5.196-3.046 6.808-1.613 8.062 7.346 6.271 19.53 10.75 33.325 10.75 13.08 0 22.933-3.404 29.563-9.854 5.733-5.554 9.137-13.437 9.137-21.679 0-32.25-45.867-25.263-45.867-38.7 0-2.15.896-3.763 2.509-5.196 2.329-1.97 6.45-3.046 11.646-3.046 6.987 0 12.541 2.15 18.275 5.734 1.97 1.254 3.225.358 6.45-5.196l1.612-2.509c3.583-6.091 3.942-7.525 2.15-8.779-7.525-5.733-17.737-8.958-29.562-8.958-20.963 0-37.088 11.467-37.088 30.28 0 34.22 45.867 25.62 45.867 39.595 0 4.837-5.554 8.42-15.05 8.42-7.525 0-15.946-3.045-22.934-7.703-1.97-1.434-3.583.179-6.629 5.554zm96.408-77.58c-11.646 0-12.008.717-12.008 2.688v55.183c0 13.617 2.512 22.217 8.425 28.846 5.375 6.092 13.796 9.675 24.725 9.675s20.066-4.479 25.8-11.287c.358 2.687.716 5.554 1.254 7.166.717 1.971 2.33 2.33 11.108 2.33h.896c10.213 0 10.93-.717 10.75-3.225-.717-9.675-1.254-25.263-1.254-39.238v-49.45c0-1.97-1.075-2.687-11.646-2.687h-.896c-11.646 0-12.004.716-12.004 2.687v41.925c0 6.808 0 13.438-.358 17.558-.359 4.3-1.254 7.167-5.017 9.496-3.225 1.971-7.704 2.867-11.825 2.867-5.196 0-9.496-1.433-11.825-4.12-2.867-3.226-3.583-6.988-3.583-19.35v-48.376c0-1.97-1.075-2.687-11.646-2.687zm101.692 0c-10.213 0-10.93.717-10.75 3.226.716 9.675 1.254 25.262 1.254 39.237v49.45c0 1.971.358 2.688 12.004 2.688h.896c10.57 0 11.646-.717 11.646-2.688v-41.925c0-6.808 0-13.437.358-17.558.358-4.3 1.254-7.167 5.017-9.496 3.225-1.97 7.883-2.867 12.004-2.867 5.196 0 9.675 1.434 12.004 4.121 2.867 3.225 3.583 6.988 3.583 19.35v48.375c0 1.971.359 2.688 12.005 2.688h.895c10.571 0 11.646-.717 11.646-2.688v-55.183c0-13.617-2.508-22.217-8.42-28.846-5.376-6.092-13.976-9.675-24.905-9.675s-20.246 4.658-25.979 11.287c-.358-2.687-.717-5.554-1.254-7.166-.717-1.971-2.33-2.33-11.108-2.33zm161.354-41.566c-11.646 0-12.004.717-12.004 2.687v45.15c-5.913-5.195-12.9-8.062-21.321-8.062-23.47 0-39.417 18.812-39.417 50.53 0 29.378 14.334 47.653 37.805 47.653 9.854 0 18.812-3.583 24.904-10.033 2.329 5.375 7.704 8.958 15.587 8.958 4.838 0 9.675-.896 12.9-2.15 1.254-.537 1.613-1.97 1.613-8.241v-1.971c0-6.45-.18-7.346-2.33-7.346-3.583 0-5.195-1.075-5.195-5.017V257.58c0-1.971-1.075-2.688-11.646-2.688zm-12.004 102.662c0 4.659-.538 7.525-2.508 9.675-2.688 2.867-8.421 4.659-13.438 4.659s-10.212-1.434-13.437-5.196c-3.584-4.12-6.092-10.93-6.092-21.496 0-18.996 6.27-29.387 19.35-29.387 6.27 0 11.646 2.866 16.125 8.241zm64.137-102.662c-11.645 0-12.004.717-12.004 2.687v130.792c0 1.971.359 2.688 12.004 2.688h.896c10.571 0 11.646-.717 11.646-2.688v-41.925c0-6.808 0-13.437.358-17.558.359-4.3 1.255-7.167 5.017-9.496 3.225-1.97 7.883-2.867 12.004-2.867 5.196 0 9.675 1.434 12.004 4.121 2.867 3.225 3.584 6.988 3.584 19.35v48.375c0 1.971.358 2.688 12.004 2.688h.896c10.57 0 11.646-.717 11.646-2.688v-55.183c0-13.617-2.509-22.217-8.421-28.846-5.375-6.092-13.975-9.675-24.904-9.675-10.034 0-18.455 3.762-24.188 9.496v-46.584c0-1.97-1.075-2.687-11.646-2.687zm167.413 97.287c1.433 0 1.792-2.329 1.792-9.316 0-27.95-14.154-48.196-41.388-48.196-27.412 0-44.075 20.783-44.075 50.167 0 30.458 17.917 48.016 46.046 48.016 12.542 0 25.8-3.583 34.758-8.6 2.15-1.254 2.33-2.329.18-8.42l-1.613-4.48c-1.97-5.375-2.867-6.091-4.837-5.196-8.063 3.405-16.484 5.734-25.263 5.734-13.617 0-21.68-6.988-23.65-19.709zm-58.05-17.558c2.33-12.004 8.78-19.35 18.633-19.35 10.034 0 15.588 8.242 16.663 19.35zm75.408-67.187c0 7.883 6.45 14.691 15.05 14.691 8.596 0 15.05-6.808 15.05-14.691s-6.454-14.692-15.05-14.692c-8.6 0-15.05 6.808-15.05 14.692zm15.23 29.025c-11.646 0-12.005.716-12.005 2.687v89.225c0 1.971.359 2.688 12.005 2.688h.895c10.571 0 11.646-.717 11.646-2.688v-89.225c0-1.97-1.075-2.687-11.646-2.687zm55.858-25.8c-11.646 0-12.004.716-12.004 2.687v23.113h-12.363c-1.616 0-2.333.358-2.333 8.958v1.254c0 8.6.717 8.958 2.333 8.958h12.363v45.688c0 11.646 2.329 19.17 7.346 24.187 4.658 4.659 11.645 7.346 21.679 7.346 6.987 0 14.87-1.612 20.604-4.479 2.15-1.075 2.33-2.15.358-8.779l-.537-1.792c-1.971-6.629-2.867-7.704-4.659-7.166-3.225 1.075-6.45 1.791-9.316 1.791-3.404 0-6.092-.896-7.884-2.508-2.15-1.97-3.045-4.838-3.045-10.033v-44.255h21.32c1.613 0 2.33-.358 2.33-8.958v-1.254c0-8.6-.717-8.958-2.33-8.958h-21.32v-23.113c0-1.97-1.075-2.687-11.646-2.687zm47.138 103.379c-2.867 5.196-3.046 6.808-1.613 8.062 7.346 6.271 19.53 10.75 33.325 10.75 13.08 0 22.933-3.404 29.563-9.854 5.733-5.554 9.137-13.437 9.137-21.679 0-32.25-45.867-25.263-45.867-38.7 0-2.15.896-3.763 2.509-5.196 2.329-1.97 6.45-3.046 11.646-3.046 6.987 0 12.541 2.15 18.275 5.734 1.97 1.254 3.225.358 6.45-5.196l1.612-2.509c3.583-6.091 3.942-7.525 2.15-8.779-7.525-5.733-17.737-8.958-29.562-8.958-20.963 0-37.088 11.467-37.088 30.28 0 34.22 45.867 25.62 45.867 39.595 0 4.837-5.554 8.42-15.05 8.42-7.525 0-15.946-3.045-22.934-7.703-1.97-1.434-3.583.179-6.629 5.554zm143.262-68.8c-4.12-5.913-12.9-10.571-22.575-10.571-21.5 0-39.596 18.275-39.596 50.887 0 29.38 14.513 47.296 37.984 47.296 9.137 0 19.17-4.12 24.545-10.212.359 2.15.717 5.016 1.255 6.091.716 1.971 2.15 2.33 10.929 2.33h.896c10.212 0 10.391-.717 10.212-3.225-.717-9.675-1.254-25.263-1.254-39.238v-10.929c0-14.692.358-32.788.358-38.7 0-1.97-1.254-2.508-10.391-2.508h-1.075c-9.675 0-10.392.716-10.571 2.329zm-2.15 51.6c0 4.3-.537 7.525-2.508 10.033-2.509 3.225-7.704 5.375-13.438 5.375-14.512 0-18.812-11.467-18.812-27.412 0-18.455 6.091-28.846 19.17-28.846 6.271 0 12.184 3.404 15.588 8.6zm58.692-60.38c-10.213 0-10.93.717-10.75 3.226.716 9.675 1.254 25.262 1.254 39.237v49.45c0 1.971.358 2.688 12.004 2.688h.896c10.57 0 11.646-.717 11.646-2.688v-42.104c0-6.808 0-13.438.358-17.558.359-4.3 1.254-7.167 5.017-9.496 3.225-1.971 7.704-2.688 10.929-2.688 4.838 0 8.958 1.434 11.288 4.121 2.866 3.225 3.583 6.988 3.583 19.35v48.375c0 1.971.358 2.688 12.004 2.688h.896c10.57 0 11.646-.717 11.646-2.688v-42.104c0-6.808 0-13.438.358-17.558.358-4.3 1.254-7.167 5.017-9.496 3.225-1.971 7.704-2.688 10.929-2.688 4.837 0 8.958 1.434 11.287 4.121 2.867 3.225 3.584 6.988 3.584 19.35v48.375c0 1.971.358 2.688 12.004 2.688h.896c10.57 0 11.646-.717 11.646-2.688v-55.183c0-13.617-2.509-22.217-8.421-28.846-5.375-6.092-13.617-9.675-24.009-9.675-11.108 0-21.32 5.017-28.487 14.154-5.017-9.317-15.767-14.154-26.875-14.154-10.213 0-19.35 5.017-25.263 11.825-.358-2.688-.895-6.092-1.433-7.704-.717-1.971-2.33-2.33-11.108-2.33zm167.467-25.8c-11.646 0-12.005.717-12.005 2.688v23.113h-12.362c-1.613 0-2.33.358-2.33 8.958v1.254c0 8.6.717 8.958 2.33 8.958h12.362v45.688c0 11.646 2.33 19.17 7.346 24.187 4.659 4.659 11.646 7.346 21.68 7.346 6.987 0 14.87-1.612 20.604-4.479 2.15-1.075 2.329-2.15.358-8.779l-.538-1.792c-1.97-6.629-2.866-7.704-4.658-7.166-3.225 1.075-6.45 1.791-9.317 1.791-3.404 0-6.091-.896-7.883-2.508-2.15-1.97-3.046-4.838-3.046-10.033v-44.255h21.321c1.613 0 2.33-.358 2.33-8.958v-1.254c0-8.6-.717-8.958-2.33-8.958h-21.32v-23.113c0-1.97-1.076-2.687-11.647-2.687z" fill="#231f20"/><path d="M1839.281 139.267c25.425 0 46.038-20.613 46.038-46.042 0-25.42-20.613-46.033-46.038-46.033-25.43 0-46.042 20.612-46.042 46.033 0 25.43 20.613 46.042 46.042 46.042z" fill="#f68b1e"/><path d="M1686.293 350.375c4.067 17.321 6.638 62.842-2.937 88.092-2.717 7.154-8.446 13.163-13.992 18.963-2.025 2.12-5.346 5.6-7.154 8.004a8182.65 8182.65 0 0 1 7.78 32.541c.766 3.23 1.495 6.505 2.237 9.792 7.6 33.9 14.358 56.2 38.146 57.296.791.033 1.583.054 2.366.054 24.613 0 30-18.533 36.754-48.78.609-2.72 1.217-5.44 1.85-8.132 2.313-9.838 4.842-19.68 7.284-29.2 1.996-7.784 3.9-15.209 5.5-21.9 2.512-10.534 5.62-21.921 8.616-32.934 6.746-24.758 13.717-50.35 15.467-70.679 1.871-21.833-1.662-33.225-5.758-42.28-2.096-4.628-5.734-9.024-9.25-13.27-5.125-6.18-10.417-12.567-11.734-20.492-2.37-14.258 1.488-30.25 5.213-45.712 3.354-13.904 6.525-27.038 4.975-37.384-3.025-20.312-22.233-30.608-57.096-30.608-6.342 0-13.196.375-20.367 1.117-17.154 1.779-27.466 5.712-33.425 12.737-9.97 11.8-7.216 29.621-4.029 50.242l.596 3.87c.675 4.43 1.738 9.28 2.863 14.405 2.554 11.646 5.195 23.687 3.479 32.775-1.559 8.242-7.18 14.575-12.625 20.7a158.531 158.531 0 0 0-4.742 5.57c25.704 10.038 36.108 28.726 39.983 45.213zM1756.523 103.367c0-24.271-19.75-44.021-44.025-44.021-24.271 0-44.017 19.75-44.017 44.02s19.746 44.022 44.017 44.022c24.275 0 44.025-19.75 44.025-44.021z" fill="#1c62ae"/><path d="M1595.314 312.775c-36.633 1.421-58.212 15.175-64.275 40.988-3.737 15.941-5.683 58.229 2.371 79.458 1.65 4.354 6.13 9.042 10.867 14.004 5.837 6.105 10.079 10.775 11.625 15.334 3.487 10.27 2.533 24.37 1.604 38.008-.967 14.154-1.967 28.704 1.946 39.008 4.875 12.85 18.208 22.121 35.675 24.8.854.1 4.166.442 6.25.442 3.346 0 6.45-.446 6.483-.45 17.413-2.67 30.746-11.942 35.62-24.792 3.905-10.312 2.913-24.858 1.95-38.929-.932-13.662-1.9-27.796 1.593-38.091 1.554-4.567 5.804-9.234 11.629-15.33 4.746-4.97 9.216-9.654 10.87-14 8.05-21.237 6.109-63.525 2.367-79.47-6.07-25.821-27.687-39.567-64.225-40.967-1.075.12-3.912-.113-6.65-.125-2.412-.009-4.741.225-5.7.112zM1641.21 258.68c0-21.884-17.804-39.684-39.687-39.684-21.88 0-39.684 17.8-39.684 39.683s17.804 39.684 39.684 39.684c21.883 0 39.687-17.8 39.687-39.684z" fill="#ee4485"/><g fill="#5fbc55"><path d="M1996.035 260.53c-23.637 3.104-41.012 14.941-48.941 33.333-10.963 25.437-8.638 101.729-4.871 112.812 1.941 5.884 6.541 10.996 10.991 15.942 1.942 2.163 3.95 4.396 5.742 6.692l1.28 1.646 6.474 57.2c4.375 24.762 7.35 33.433 23.117 33.433h75.45c15.763 0 18.738-8.67 23.113-33.433l6.475-57.205 1.287-1.645c1.78-2.292 3.788-4.521 5.73-6.675 4.45-4.95 9.053-10.063 10.983-15.896 3.779-11.146 6.1-87.455-4.859-112.871-7.925-18.392-25.304-30.23-48.929-33.334-23.97-3.858-45.13-3.466-63.042 0zM2167.102 385.067c-.55-9.642-6.717-15.17-16.917-15.17-.454 0-.916.007-1.379.032-3.941.192-9.387 1.25-12.95 5.217-3.258 3.613-3.716 8.304-3.529 11.6l9.254 162.888c.575 10.062 7.346 15.604 18.296 15.137 3.942-.191 9.383-1.25 12.95-5.216 3.263-3.621 3.717-8.309 3.533-11.6zM1907.723 369.921a29.81 29.81 0 0 0-1.354-.033c-10.134 0-16.255 5.529-16.8 15.175l-9.213 162.892c-.187 3.312.275 8.02 3.533 11.633 3.546 3.942 8.93 4.992 12.821 5.183 10.775.467 17.588-5.07 18.159-15.146l9.208-162.887c.183-3.313-.27-8.017-3.53-11.638-3.55-3.933-8.937-4.987-12.824-5.179z"/></g><path d="M1874.798 384.23c.87-15.488 10.975-26.376 25.8-28.659l.058-.083s22.454-.838 25.167-29.909c.004-.033.012-.062.016-.104.342-3.612 2.784-35.487 4.171-49.337 5.204-51.854 15.392-100.196-24.137-112.892-12.825-4.125-37.28-5.617-61.542-5.617h-10.108c-24.263 0-48.717 1.492-61.534 5.617-.741.242-1.429.512-2.133.78 10.058 8.212 14.312 18.607 15.733 28.14 1.975 13.197-1.683 28.372-5.225 43.038-3.379 14.025-6.879 28.53-5.004 39.821.663 3.984 4.483 8.592 8.533 13.475 3.946 4.771 8.426 10.175 11.342 16.609 6.638 14.687 8.738 29.533 7.013 49.65-1.7 19.816-7.838 43.479-14.167 66.816-.567 15.805-7.82 98.1.425 118.425 6.53 16.1 28.242 24.596 50.07 24.805 8.968-.088 17.51-.971 25.734-5.659z" fill="#f68b1e"/><path d="M2071.419 200.45c0-24.27-19.746-44.025-44.025-44.025-24.271 0-44.017 19.754-44.017 44.025s19.746 44.021 44.017 44.021c24.279 0 44.025-19.75 44.025-44.02z" fill="#5fbc55"/></g></svg>